<?xml version="1.0" encoding="utf-8"?>
<!-- Generator: Adobe Illustrator 24.2.3, SVG Export Plug-In . SVG Version: 6.00 Build 0)  -->
<svg version="1.1" id="Layer_1" xmlns="http://www.w3.org/2000/svg" xmlns:xlink="http://www.w3.org/1999/xlink" x="0px" y="0px"
	 viewBox="0 0 168 41.7" style="enable-background:new 0 0 168 41.7;" xml:space="preserve">
<style type="text/css">
	.st0{fill:#282828;}
	.st1{fill:url(#SVGID_1_);}
</style>
<path class="st0" d="M13.2,23.3c-0.4-0.1-0.8-0.3-1.1-0.4c-0.2-0.1-0.5-0.2-0.8-0.3c-2.7-0.9-5.3-2-5.1-4.1c0.3-3.3,5.2-3.4,5.3-3.4
	c3.1,0,5.2,1.1,6.1,3.4l0.2,0.4l4.2-1.5l-0.2-0.5c-1.7-3.8-5.4-6-10.3-6c-6.3,0-9.5,3.8-9.8,7.3c-0.4,5.4,5.3,7.4,8.1,8.3l0.2-0.5
	c0,0,0,0,0,0l-0.1,0.5l0.6,0.2c0.3,0.1,0.8,0.3,1.2,0.4l0.1,0c3.4,1.1,6.5,2.3,6.6,5.2c0,1-0.3,1.9-1.1,2.6c-1.1,1-3,1.6-5,1.6
	c-0.2,0-0.3,0-0.5,0c-2.8-0.1-6.2-1.5-7.2-5l-0.1-0.5L0,32.2l0.1,0.5c1.4,4.7,5.8,7.8,11.4,8.1c0.2,0,0.5,0,0.7,0
	c3.2,0,6.1-1,8.1-2.7c1.7-1.5,2.6-3.5,2.5-5.7C22.6,26.4,16.5,24.4,13.2,23.3z"/>
<path class="st0" d="M40.4,19.2l0,11.1l0,0.4c-0.1,0.9-0.2,1.7-0.5,2.4c-0.3,0.7-0.8,1.4-1.3,1.9c-0.9,0.8-2.1,1.3-3.4,1.3
	c-0.2,0-0.3,0-0.5,0c-1.4-0.1-2.6-0.6-3.3-1.6c-0.4-0.5-0.7-1.1-0.9-1.7c-0.1-0.3-0.2-0.7-0.2-1c0-0.2,0-0.4,0-0.5l0-0.3l0-11.8
	h-4.5l0,11.5c-0.1,1.8,0.2,4.3,1.9,6.5c0.8,1.1,1.9,1.9,3.2,2.5c1.1,0.5,2.3,0.7,3.6,0.7c0.1,0,0.2,0,0.4,0c0.7,0,1.3-0.1,1.9-0.3
	c0.6-0.2,1.3-0.4,1.9-0.7c0.7-0.4,1.4-0.9,1.9-1.5v2.2h4.5v-21H40.4z"/>
<path class="st0" d="M62.8,19.5c-1-0.3-2-0.5-3.1-0.5c-0.1,0-0.2,0-0.4,0c-0.7,0-1.3,0.1-1.9,0.3c-0.6,0.2-1.3,0.4-1.9,0.7
	c-0.7,0.4-1.4,0.9-1.9,1.5v-2.2h-4.5v21h4.5l0-11.1l0-0.4c0.1-1,0.2-1.7,0.5-2.4c0.3-0.7,0.8-1.4,1.3-1.9c0.9-0.8,2.1-1.3,3.4-1.3
	c0.2,0,0.3,0,0.5,0c0.9,0,1.6,0.3,2.3,0.6l0.6,0.3l1.1-4.5L62.8,19.5z"/>
<path class="st0" d="M116.6,19.2v2.8c-0.9-0.9-2.1-1.7-3.3-2.2c-1.4-0.6-2.9-0.9-4.5-1l-0.1,0c-1.5,0-3,0.3-4.4,0.8
	c-1.4,0.5-2.7,1.4-3.8,2.4c-2.1,2-3.3,4.8-3.3,7.6c0,2.8,1.2,5.6,3.3,7.6c1.1,1,2.4,1.9,3.8,2.4c1.4,0.5,2.9,0.8,4.4,0.8l0.1,0
	c1.6,0,3.1-0.4,4.5-1c1.2-0.5,2.3-1.3,3.3-2.2v2.8h4.5v-21H116.6z M116.6,29.7c0,1.8-0.9,3.6-2.4,4.9c-1.4,1.1-3.2,1.8-5.1,1.8
	l-0.2,0c-1,0-1.9-0.2-2.7-0.6c-0.9-0.3-1.7-0.8-2.3-1.4c-1.3-1.2-2.1-2.9-2.1-4.6c0-1.7,0.8-3.4,2.1-4.6c1.3-1.2,3.2-2,5-2l0.2,0
	c1.9,0,3.7,0.6,5.1,1.8C115.7,26.1,116.6,27.9,116.6,29.7z"/>
<polygon class="st0" points="139.4,19.2 133.8,34.1 128.1,19.2 123.3,19.2 131.3,40.2 136.3,40.2 144.2,19.2 "/>
<path class="st0" d="M167.8,31.3c0.1-0.6,0.1-1.1,0.1-1.6c0-6-5.2-10.8-11.6-10.8c-6.4,0-11.6,4.9-11.6,10.8c0,6,5.6,10.8,12.4,10.8
	c4.1,0,8-1.8,10.3-4.7l0.4-0.5l-4.2-1.8l-0.2,0.3c-1.5,1.6-3.8,2.6-6.3,2.6c-3.4,0-6.5-1.9-7.5-4.6h18.2L167.8,31.3z M156.3,23.1
	c3.1,0,5.8,1.9,6.8,4.6h-13.5C150.5,25,153.2,23.1,156.3,23.1z"/>
<linearGradient id="SVGID_1_" gradientUnits="userSpaceOnUse" x1="63.657" y1="41.9265" x2="110.4439" y2="-16.8276">
	<stop  offset="0.2152" style="stop-color:#68C9D1"/>
	<stop  offset="0.3963" style="stop-color:#65C3D6"/>
	<stop  offset="0.6332" style="stop-color:#5CB3E2"/>
	<stop  offset="0.9" style="stop-color:#4C98F7"/>
	<stop  offset="0.9505" style="stop-color:#4992FC"/>
</linearGradient>
<polygon class="st1" points="100.8,1.5 77.3,31.6 77.1,31.8 72.3,19.1 65.8,19.1 74.4,41.6 79.9,41.6 111.6,1.5 "/>
</svg>
